<svg xmlns="http://www.w3.org/2000/svg" viewBox="0 0 64 64" fill="none">
  <defs>
    <linearGradient id="cGrad" x1="0%" y1="0%" x2="100%" y2="100%">
      <stop offset="0%" style="stop-color:#38BDF8"/>
      <stop offset="100%" style="stop-color:#8B5CF6"/>
    </linearGradient>
  </defs>
  <!-- Pixelated particles -->
  <rect x="4" y="6" width="4" height="4" rx="0.5" fill="#6366F1" opacity="0.5"/>
  <rect x="10" y="2" width="3" height="3" rx="0.5" fill="#818CF8" opacity="0.4"/>
  <rect x="14" y="8" width="3" height="3" rx="0.5" fill="#38BDF8" opacity="0.35"/>
  <rect x="6" y="14" width="3" height="3" rx="0.5" fill="#6366F1" opacity="0.45"/>
  <rect x="2" y="20" width="4" height="4" rx="0.5" fill="#8B5CF6" opacity="0.3"/>
  <rect x="8" y="24" width="2.5" height="2.5" rx="0.5" fill="#38BDF8" opacity="0.4"/>
  <rect x="12" y="14" width="2" height="2" rx="0.5" fill="#818CF8" opacity="0.3"/>
  <!-- C shape -->
  <path d="M38 12C30 8 20 12 16 20C12 28 14 38 20 44C26 50 36 52 44 48" stroke="url(#cGrad)" stroke-width="6" stroke-linecap="round" fill="none"/>
  <!-- </> code symbols -->
  <path d="M28 26L22 32L28 38" stroke="white" stroke-width="3" stroke-linecap="round" stroke-linejoin="round"/>
  <path d="M40 26L46 32L40 38" stroke="white" stroke-width="3" stroke-linecap="round" stroke-linejoin="round"/>
  <line x1="36" y1="24" x2="32" y2="40" stroke="white" stroke-width="2.5" stroke-linecap="round" opacity="0.9"/>
</svg>
